<?xml version="1.0" encoding="UTF-8"?><svg id="svg28507" xmlns="http://www.w3.org/2000/svg" viewBox="0 0 597.78 408.58"><defs><style>.cls-1{fill:#ec00ff;}.cls-2{font-family:OldEnglishTextMT, 'Old English Text MT';font-size:138px;}.cls-3{fill:#0013ff;}.cls-4{fill:#61f72f;}.cls-5{fill:red;}</style></defs><g id="layer6"><g id="g14911"><path id="path4278" d="M100.26,249.83l-9.76,45.3-9.67-45.3h-16.82l-9.06,45.85-9.58-45.85H25.24l18.3,78.44h18.29l9.06-44.63,9.32,44.63h17.95l14.7-62.74h19.62v-15.69h-32.23Zm129.75,15.45v24.97c-1.55-2.17-3.36-3.81-5.34-4.79-1.89-1.09-4.04-1.64-6.62-1.64-6.1,0-11.01,2.73-14.71,8.29-2.36,3.56-3.97,7.91-4.82,13.07v-.21c0-7.41-1.28-12.76-3.87-16.14-2.58-3.38-6.71-5.02-12.3-5.02-3.27,0-6.19,.87-8.6,2.51-2.41,1.53-4.3,3.92-5.77,7.19v-8.18h-17.8v57.36h19.18v-35.22c0-2.61,.43-4.58,1.38-6,.94-1.54,2.24-2.19,3.95-2.19s2.75,.65,3.53,1.97c.78,1.31,1.11,3.38,1.11,6.1v35.33h19.18v-19.4c.82,5.12,2.37,9.46,4.65,12.97,3.53,5.34,8.34,7.96,14.45,7.96,2.92,0,5.5-.65,7.74-2.07,2.23-1.53,4.12-3.71,5.67-6.66l.09,7.2h18.15v-19.02c1.19,4.75,3.33,8.84,6.46,12.26,4.98,5.57,11.44,8.29,19.61,8.29s14.62-2.72,19.61-8.29c4.98-5.56,7.48-12.86,7.48-21.92,0-1.93-.12-3.78-.34-5.55l9.54,34.23h14.02l6.88-32.06,6.71,32.06h14.19l10.15-36.79c.22,1.62,.66,3.17,1.29,4.62,1.03,2.29,2.41,4.15,4.13,5.56,2.84,2.61,7.56,4.47,14.36,5.89l5.25,.87c4.04,.55,6.11,1.74,6.11,3.49,0,1.09-.6,2.18-1.89,2.72-1.29,.77-3,1.1-5.15,1.1-3.19,0-5.77-.55-7.49-1.64-1.81-1.09-3.01-2.72-3.44-4.8l-15.74,2.18c1.38,5.89,4.22,10.25,8.69,13.31,4.39,3.05,10.14,4.58,17.2,4.58,7.57,0,13.68-1.97,18.32-5.79,4.65-3.71,6.97-8.62,6.97-14.73,0-2.29-.43-4.59-1.21-6.77-.69-1.96-1.81-3.71-3.35-5.34-2.41-2.4-6.71-4.26-12.9-5.56l-6.71-1.2c-5.07-.76-7.74-2.07-7.74-3.92,0-1.2,.52-2.07,1.46-2.72,.94-.55,2.32-.87,4.12-.87,2.41,0,4.38,.44,5.77,1.31,1.38,.76,2.57,1.96,3.44,3.71l15.05-2.95c-1.72-4.91-4.56-8.73-8.52-11.45-3.87-2.61-8.85-3.92-14.79-3.92-7.14,0-12.72,1.85-17.02,5.45-.78,.67-1.49,1.38-2.13,2.13l1.61-5.84h-13.51l-7.14,28.9-6.28-28.9h-14.53l-6.11,28.13-6.96-28.13h-19.1l3.78,13.55c-1.16-2.5-2.64-4.76-4.46-6.79-4.99-5.46-11.53-8.29-19.61-8.29s-14.62,2.84-19.7,8.29c-3.07,3.42-5.19,7.51-6.37,12.25v-39.08h-19.26Zm-108.64,10.8v57.36h19.87v-57.36h-19.87Zm102.65,20.96c2.01,0,3.58,.66,4.53,1.87,.96,1.44,1.4,3.21,1.4,5.53v16.57c0,2.21-.43,4.09-1.57,5.42-1.05,1.44-2.35,2.2-4,2.2-2.26,0-3.83-1.2-4.87-3.64-1.05-2.32-1.57-6.07-1.57-11.49s.52-9.83,1.57-12.37c.95-2.66,2.52-4.09,4.53-4.09Zm51.84,0c2.35,0,4,1.32,5.14,3.87,1.05,2.65,1.65,6.63,1.65,12.15s-.61,9.5-1.65,12.15c-1.14,2.54-2.79,3.87-5.14,3.87s-4.18-1.33-5.23-3.87c-1.05-2.43-1.56-6.53-1.56-12.15s.52-9.5,1.56-12.15c1.05-2.54,2.88-3.87,5.23-3.87Z"/><g id="g366"><path id="path4518-2" d="M409.86,225.16l68.48-136.42c-30.04-27.54-67.41-41.03-112.28-40.33l-68.92,137.68c42.07-4.62,79.41,8.5,112.72,39.07Z"/><path id="path4594-9" class="cls-4" d="M161.9,77.21l-3.09,6.2,12.71-2.19,3.33-6.58-12.95,2.58Zm10.88-20.22l-3.39,6.25,13.01-2.42,3.32-6.57-12.94,2.74Zm11.62,26.65l-4.85,8.89,17.48-4.21,5.11-9.27-17.74,4.6Zm10.85-20.41l-4.85,8.91,17.46-4.22,4.8-9.22-17.41,4.53Zm12.95,28.63l-5.53,10.56,23.23-4.36,5.72-11.1-23.43,4.9Zm10.9-20.24l-5.53,10.55,22.87-4.44,5.81-10.78-23.16,4.68Zm18.63,20.97l-7.66,14.86,28.7-5.81,7.72-14.54-28.75,5.49Zm10.88-20.24l-7.99,14.75,28.7-5.81,7.75-14.55-28.47,5.61Zm45.42,31.93l8.94-16.8-33.86,7.38-8.65,16.58,33.57-7.16Zm10.89-20.39l8.65-16.58-33.59,7.16-8.94,16.8,33.88-7.38Z"/><path id="path4600-1" class="cls-1" d="M128.69,140.22l-3.39,6.24,13.01-2.41,3.64-6.48-13.26,2.65Zm10.85-20.4l-3.42,6.08,13-2.41,3.37-6.24-12.95,2.57Zm11.62,26.63l-4.52,8.83,17.15-4.16,4.8-9.23-17.42,4.55Zm10.87-20.38l-4.52,8.82,17.15-4.15,4.84-9.06-17.47,4.39Zm12.94,28.62l-5.52,10.72,23.2-4.52,5.45-10.89-23.14,4.69Zm10.85-20.41l-5.79,10.78,23.5-4.57,5.47-10.9-23.17,4.69Zm18.66,21.3l-7.72,14.53,28.43-5.58,7.99-14.75-28.7,5.8Zm10.57-20.34l-7.96,14.91,29.02-5.86,7.67-14.69-28.73,5.63Zm20.49,22.52l-8.6,16.73,33.89-7.4,8.9-16.8-34.19,7.46Zm10.85-20.41l-8.6,16.73,33.86-7.35,8.64-16.77-33.89,7.39Z"/><path id="path4602-1" d="M117.32,161.38l-3.09,6.21,13.01-2.44,3.33-6.58-13.25,2.81Zm33.51-63.04l-3.38,6.23,13.02-2.25,3.63-6.63-13.28,2.65Zm32.98-62.46l-3.4,6.08,13.27-2.47,3.67-6.64-13.54,3.03Zm-44.01,131.73l-4.27,8.63,17.21-4.02,4.8-9.22-17.74,4.61Zm33.54-62.88l-4.85,8.91,17.16-4.17,5.11-9.29-17.42,4.55Zm45.89-58.15l4.82-9.07-17.45,4.39-4.56,8.84,17.18-4.16Zm-55.62,129.25l-5.53,10.74,23.18-4.52,5.79-10.93-23.44,4.72Zm56.68-67.55l-23.17,4.69-5.82,10.61,23.24-4.33,5.76-10.97Zm10.11-57.99l-5.51,10.56,22.85-4.47,5.82-10.76-23.16,4.68Zm-16.25,135.35l7.69-14.7-28.43,5.59-7.99,14.72,28.73-5.61Zm40.96-77.37l-28.76,5.47-7.66,14.87,28.74-5.81,7.68-14.54Zm33.22-62.99l-28.43,5.6-7.96,14.92,28.7-5.83,7.69-14.69Zm-38.89,142.99l8.93-16.63-33.55,7.15-8.96,16.64,33.59-7.17Zm8.59-72.27l-9.24,16.85,34.19-7.45,8.6-16.74-33.56,7.34Zm33.26-62.84l-8.94,16.81,33.56-7.34,8.97-16.62-33.59,7.15Zm7.94,114.53l-36.09,7.45-9.89,18.49,36.57-8.21,9.41-17.73Zm11.39-21.18l-36.43,7.51-9.57,18.46,36.32-7.99,9.68-17.97Zm11.31-21.5l-36.41,7.49-9.64,18.3,36.62-8.04,9.43-17.75Zm11.11-20.77l-36.43,7.5-9.6,18.29,36.32-7.99,9.71-17.79Zm11.04-21.1l-36.08,7.41-9.95,18.37,36.65-7.88,9.38-17.9Zm11.05-21.11l-36.08,7.6-9.87,18.51,36.58-8.2,9.38-17.91Zm11.38-21l-36.41,7.48-9.59,18.46,36.29-8.16,9.71-17.78Z"/><path id="path4604-0" class="cls-4" d="M383.44,54.95c-1.99-.24-4.03-.44-6.12-.63l-28.87,61.39c15.97,1.06,29.72,4.8,41.06,10.8l29.09-61.61c-8.88-4.97-20.62-8.21-35.16-9.95Z"/><path id="path4606-4" class="cls-3" d="M458.92,93.91c-9.88-12.39-21.48-21.07-34.77-26.35l-22.33,66.12s8.13,3,15.02,7.64c6.47,4.35,12.44,8.7,20.17,17.65l21.92-65.06Z"/><path id="path4608-8" class="cls-5" d="M430.16,160.72c-9.89-12.15-21.69-20.31-35.21-24.77l-21.47,63.46c12.44,5.28,24.06,13.97,35.23,25.55l21.46-64.24Z"/><path id="path4610-7" class="cls-1" d="M349.6,124.57c-2.7,0-5.43,.13-8.19,.37l-21.08,62.45c12.58-.78,26.63,1.1,42.38,5.25l20.81-61.63c-10.64-4.28-21.98-6.47-33.92-6.44Z"/></g></g></g><text class="cls-2" transform="translate(424.23 333.34)"><tspan x="0" y="0">97</tspan></text></svg>
